<svg width="1408" height="768" viewBox="0 0 1408 768" fill="none" xmlns="http://www.w3.org/2000/svg">
<g style="mix-blend-mode:color">
<rect width="1408" height="768" fill="white"/>
<path d="M777.135 145L765.504 146.86L752.681 149.71L740.295 153.998L730.675 157.846L723.709 161.097L714.769 166.272L705.767 172.432L698.845 177.97L693.446 183.367L687.444 190.754L683.064 197.323L680.354 203.651C680.317 203.737 680.278 203.822 680.238 203.906L676.442 211.972L674.34 218.279L673.5 225V248.5C673.5 252.918 669.918 256.5 665.5 256.5C661.082 256.5 657.5 252.918 657.5 248.5V224.5C657.5 224.168 657.52 223.837 657.562 223.508L658.562 215.508L658.62 215.117C658.688 214.728 658.785 214.345 658.91 213.97L661.41 206.47C661.51 206.171 661.628 205.879 661.762 205.594L665.694 197.236L668.646 190.349C668.839 189.9 669.073 189.469 669.344 189.062L674.344 181.562L674.561 181.254C674.635 181.153 674.712 181.053 674.791 180.955L681.291 172.955C681.464 172.742 681.648 172.537 681.843 172.343L687.843 166.343C688.051 166.134 688.272 165.937 688.502 165.753L696.002 159.753C696.157 159.629 696.318 159.51 696.482 159.397L705.982 152.897C706.148 152.784 706.318 152.677 706.492 152.576L715.992 147.076L716.301 146.906C716.405 146.852 716.511 146.801 716.617 146.751L724.117 143.251L724.529 143.072L734.529 139.072L734.883 138.94L747.883 134.44L748.32 134.303C748.467 134.261 748.615 134.224 748.765 134.19L762.265 131.19L762.736 131.101L775.236 129.101L775.551 129.057C775.866 129.019 776.183 129 776.5 129H811C815.418 129 819 132.582 819 137V177C819 177.295 818.984 177.59 818.951 177.884L817.951 186.884C817.907 187.281 817.833 187.675 817.729 188.062L815.78 195.368L814.322 202.176C814.289 202.332 814.251 202.488 814.208 202.642L811.708 211.642C811.672 211.772 811.633 211.902 811.59 212.03L808.59 221.03C808.559 221.124 808.525 221.216 808.49 221.309L805.49 229.309C805.367 229.636 805.223 229.956 805.059 230.265L801.059 237.765C801.03 237.817 801.002 237.87 800.973 237.922L796.473 245.922C796.374 246.098 796.268 246.27 796.156 246.438L791.156 253.938C790.909 254.308 790.631 254.659 790.325 254.983L782.325 263.483C782.148 263.671 781.962 263.851 781.768 264.021L773.768 271.021C773.747 271.038 773.727 271.057 773.706 271.074L766.706 277.074C766.21 277.5 765.663 277.863 765.078 278.155L754.078 283.655C753.796 283.796 753.506 283.921 753.21 284.027L740.71 288.527C740.257 288.69 739.79 288.812 739.315 288.892L727.315 290.892C726.881 290.964 726.441 291 726 291H676C673.165 291 670.543 289.5 669.105 287.057C667.668 284.614 667.63 281.593 669.007 279.115L673.267 271.445C673.313 271.301 673.348 271.209 673.358 271.179C673.506 270.758 673.67 270.38 673.801 270.095C674.297 269.011 675.184 267.379 676.59 264.969L676.687 264.808C680.698 258.289 681.362 257.017 686.1 250.7C689.784 245.787 693.758 240.83 695.309 238.935L695.354 238.879L700.354 232.879L700.593 232.605C700.674 232.516 700.757 232.428 700.843 232.343L705.703 227.482L710.054 222.648L710.343 222.343L721.843 210.843C721.932 210.753 722.024 210.665 722.118 210.58L727.479 205.707L737.343 195.843C737.389 195.797 737.435 195.752 737.482 195.707L747.982 185.707C751.182 182.66 756.246 182.783 759.293 185.982C762.34 189.182 762.217 194.246 759.018 197.293L748.6 207.215L738.657 217.157C738.568 217.247 738.476 217.335 738.382 217.42L733.021 222.293L721.797 233.518L717.446 238.352C717.352 238.456 717.256 238.558 717.157 238.657L712.406 243.408L707.675 249.084C706.214 250.871 702.403 255.63 698.9 260.3C694.661 265.952 694.305 266.703 690.376 273.089C689.925 273.862 689.569 274.493 689.285 275H725.335L735.972 273.227L747.347 269.132L757.041 264.284L763.294 258.926L770.937 252.237L778.216 244.504L782.675 237.815L786.986 230.149L790.694 223.196L793.448 215.855L796.349 207.153L798.729 198.585L800.178 191.824L800.271 191.438L802.114 184.521L803 176.556V145H777.135Z" fill="#2CA669" stroke="#2CA669"/>
<path d="M844 240.5C846.652 240.5 849.196 241.553 851.071 243.429L853.071 245.429C853.831 246.189 854.463 247.067 854.944 248.028L855.944 250.028C856.638 251.417 857 252.948 857 254.5V257C857 258.115 856.814 259.221 856.449 260.274C851.363 274.949 843.632 297.164 836.971 316.115C833.642 325.588 830.574 334.264 828.235 340.779C827.067 344.033 826.071 346.775 825.311 348.817C824.674 350.53 823.949 352.462 823.444 353.472C822.615 355.131 821.97 356.339 821.456 357.189C821.288 357.466 820.785 358.303 820.061 359.117C819.953 359.239 819.791 359.415 819.581 359.622L817.682 361.901C817.489 362.134 817.285 362.358 817.071 362.571L814.571 365.071C813.175 366.467 811.397 367.418 809.462 367.806L804.462 368.806C803.775 368.943 803.075 369.008 802.375 368.999L682.875 367.499C682.408 367.493 681.941 367.455 681.479 367.384L674.979 366.384C673.295 366.125 671.706 365.439 670.361 364.394L665.861 360.894C665.534 360.639 665.222 360.364 664.929 360.071C662.766 357.908 658.043 352.479 654.318 345.961C652.177 342.213 650.583 338.844 650.279 334.892C650.145 333.155 650.295 331.579 650.362 330.761C650.438 329.834 650.5 329.059 650.5 328C650.5 320.655 651.326 318.434 653.238 309.831L653.307 309.541C653.332 309.445 653.357 309.349 653.384 309.253C654.225 306.312 654.805 303.97 655.483 301.867C656.254 299.478 657.281 296.876 659.284 292.119C660.989 288.069 662.473 285.032 663.695 282.817C664.721 280.96 666 278.858 667.429 277.429C671.335 273.524 677.666 273.524 681.571 277.429C685.302 281.16 685.466 287.105 682.067 291.033C682.062 291.041 682.057 291.049 682.051 291.057C681.896 291.29 681.611 291.746 681.205 292.482C680.394 293.951 679.211 296.332 677.716 299.881C675.72 304.624 674.997 306.522 674.517 308.008C673.96 309.736 673.782 310.642 672.698 314.45C671.657 319.124 671.166 321.059 670.847 322.863C670.606 324.234 670.5 325.365 670.5 328C670.5 329.941 670.375 331.416 670.295 332.396C670.26 332.813 670.244 333.068 670.235 333.218C670.376 333.571 670.755 334.416 671.682 336.039C674.118 340.302 677.277 344.03 678.705 345.546L680.588 347.011L683.828 347.51L801.571 348.987L802.57 348.788L802.611 348.747L804.624 346.331C804.82 345.967 805.124 345.392 805.555 344.528C805.451 344.736 805.724 344.11 806.566 341.846C807.286 339.909 808.252 337.251 809.412 334.021C811.728 327.57 814.778 318.945 818.103 309.484C823.793 293.296 830.266 274.711 835.2 260.5H816.5C810.977 260.5 806.5 256.023 806.5 250.5C806.5 244.977 810.977 240.5 816.5 240.5H844ZM822.433 351.353C822.477 351.73 822.5 352.113 822.5 352.5C822.5 352.328 822.5 351.919 822.433 351.353Z" fill="#2CA669" stroke="#2CA669"/>
<path d="M605 379.5C605 379.059 605.036 378.619 605.108 378.185L606.108 372.185C606.189 371.701 606.314 371.226 606.481 370.766L608.481 365.266C608.789 364.419 609.238 363.632 609.809 362.935L614.309 357.435L614.541 357.162C615.097 356.541 615.748 356.011 616.469 355.59L622.469 352.09L622.739 351.938C623.141 351.725 623.56 351.547 623.991 351.404L581.715 238.359L579.507 234.385C579.451 234.284 579.396 234.182 579.345 234.078L576.146 227.68C574.71 225.715 571.909 221.93 569.485 218.8L567.655 216.97L566.162 215.775L563.611 214.5H520.5C516.082 214.5 512.5 210.918 512.5 206.5C512.5 202.082 516.082 198.5 520.5 198.5H565.5C566.742 198.5 567.967 198.789 569.078 199.345L574.078 201.845L574.45 202.043C574.817 202.251 575.168 202.489 575.498 202.753L577.998 204.753L578.335 205.039C578.445 205.138 578.553 205.238 578.657 205.343L581.157 207.843L581.33 208.021C581.5 208.203 581.662 208.392 581.814 208.589C583.971 211.362 586.437 214.668 588.106 216.934L589.47 218.795L589.658 219.065C589.841 219.34 590.007 219.626 590.155 219.922L593.581 226.773L595.993 231.115L596.134 231.379C596.269 231.645 596.389 231.918 596.493 232.197L642.493 355.197C643.412 357.654 643.068 360.405 641.573 362.56C640.078 364.714 637.623 366 635 366H631.878L629.453 366.538L625.775 368.684L623.054 372.01L621.771 375.541L621 380.165V384C621 386.977 622.047 390.013 623.574 391.794C625.389 393.911 626.521 394.611 628.099 395.125C628.296 395.135 628.552 395.147 628.873 395.158C629.938 395.195 631.472 395.224 633.463 395.244C637.432 395.285 643.019 395.289 649.871 395.266C663.566 395.219 682.184 395.063 702.739 394.875C743.816 394.5 792.619 394 825 394C829.418 394 833 397.582 833 402C833 406.418 829.418 410 825 410C792.714 410 744.017 410.5 702.886 410.875C682.337 411.062 663.673 411.219 649.926 411.266C643.057 411.289 637.382 411.286 633.301 411.244C631.267 411.223 629.579 411.192 628.318 411.148C627.695 411.127 627.111 411.101 626.613 411.064C626.437 411.052 625.348 410.991 624.302 410.692C619.213 409.238 615.39 406.831 611.426 402.206C606.953 396.987 605 390.023 605 384V379.5Z" fill="#2CA669" stroke="#2CA669"/>
<ellipse cx="668.5" cy="427" rx="32.5" ry="31" fill="#2CA669"/>
<path d="M683 427C683 435.284 676.06 442 667.5 442C658.94 442 652 435.284 652 427C652 418.716 658.94 412 667.5 412C676.06 412 683 418.716 683 427Z" fill="white"/>
<ellipse cx="780.5" cy="429" rx="32.5" ry="31" fill="#2CA669"/>
<path d="M796 427C796 435.284 789.06 442 780.5 442C771.94 442 765 435.284 765 427C765 418.716 771.94 412 780.5 412C789.06 412 796 418.716 796 427Z" fill="white"/>
<path d="M635.997 242.184C639.862 242.082 643.077 245.133 643.179 248.998C643.281 252.862 640.23 256.078 636.365 256.179L598.366 257.179C594.501 257.281 591.286 254.231 591.184 250.366C591.082 246.501 594.133 243.286 597.998 243.184L635.997 242.184Z" fill="#2CA669" stroke="#2CA669"/>
<path d="M306.968 565V497.8H336.056C342.072 497.8 347.256 498.792 351.608 500.776C355.96 502.696 359.32 505.48 361.688 509.128C364.056 512.776 365.24 517.128 365.24 522.184C365.24 527.176 364.056 531.496 361.688 535.144C359.32 538.792 355.96 541.608 351.608 543.592C347.256 545.512 342.072 546.472 336.056 546.472H315.608L322.52 539.464V565H306.968ZM322.52 541.192L315.608 533.8H335.192C339.992 533.8 343.576 532.776 345.944 530.728C348.312 528.68 349.496 525.832 349.496 522.184C349.496 518.472 348.312 515.592 345.944 513.544C343.576 511.496 339.992 510.472 335.192 510.472H315.608L322.52 503.08V541.192ZM376.343 565V497.8H405.431C411.447 497.8 416.631 498.792 420.983 500.776C425.335 502.696 428.695 505.48 431.063 509.128C433.431 512.776 434.615 517.128 434.615 522.184C434.615 527.176 433.431 531.496 431.063 535.144C428.695 538.728 425.335 541.48 420.983 543.4C416.631 545.32 411.447 546.28 405.431 546.28H384.983L391.895 539.464V565H376.343ZM419.063 565L402.263 540.616H418.871L435.863 565H419.063ZM391.895 541.192L384.983 533.896H404.567C409.367 533.896 412.951 532.872 415.319 530.824C417.687 528.712 418.871 525.832 418.871 522.184C418.871 518.472 417.687 515.592 415.319 513.544C412.951 511.496 409.367 510.472 404.567 510.472H384.983L391.895 503.08V541.192ZM446.937 565V497.8H462.489V565H446.937ZM478.437 565V497.8H491.301L519.909 545.224H513.093L541.221 497.8H553.989L554.181 565H539.589L539.493 520.168H542.181L519.717 557.896H512.709L489.765 520.168H493.029V565H478.437ZM584.428 524.872H616.78V536.968H584.428V524.872ZM585.58 552.52H622.156V565H570.124V497.8H620.908V510.28H585.58V552.52ZM661.718 565V497.8H674.582L703.19 545.224H696.374L724.502 497.8H737.27L737.462 565H722.87L722.774 520.168H725.462L702.998 557.896H695.99L673.046 520.168H676.31V565H661.718ZM744.573 565L774.526 497.8H789.886L819.934 565H803.614L779.038 505.672H785.182L760.51 565H744.573ZM759.549 550.6L763.678 538.792H798.238L802.462 550.6H759.549ZM826.906 565V497.8H855.994C862.01 497.8 867.194 498.792 871.546 500.776C875.898 502.696 879.258 505.48 881.626 509.128C883.994 512.776 885.178 517.128 885.178 522.184C885.178 527.176 883.994 531.496 881.626 535.144C879.258 538.728 875.898 541.48 871.546 543.4C867.194 545.32 862.01 546.28 855.994 546.28H835.546L842.458 539.464V565H826.906ZM869.625 565L852.826 540.616H869.434L886.426 565H869.625ZM842.458 541.192L835.546 533.896H855.13C859.93 533.896 863.514 532.872 865.882 530.824C868.25 528.712 869.434 525.832 869.434 522.184C869.434 518.472 868.25 515.592 865.882 513.544C863.514 511.496 859.93 510.472 855.13 510.472H835.546L842.458 503.08V541.192ZM911.419 549.64L910.555 531.688L942.715 497.8H959.995L931.003 529L922.363 538.216L911.419 549.64ZM897.499 565V497.8H912.955V565H897.499ZM943.483 565L919.579 535.72L929.755 524.68L961.627 565H943.483ZM982.866 524.872H1015.22V536.968H982.866V524.872ZM984.018 552.52H1020.59V565H968.562V497.8H1019.35V510.28H984.018V552.52ZM1046.89 565V510.472H1025.38V497.8H1083.94V510.472H1062.44V565H1046.89Z" fill="#2A3940"/>
<path d="M429.832 633.384C427.272 633.384 424.824 633 422.488 632.232C420.152 631.432 418.312 630.408 416.968 629.16L418.744 625.416C420.024 626.536 421.656 627.464 423.64 628.2C425.624 628.936 427.688 629.304 429.832 629.304C431.784 629.304 433.368 629.08 434.584 628.632C435.8 628.184 436.696 627.576 437.272 626.808C437.848 626.008 438.136 625.112 438.136 624.12C438.136 622.968 437.752 622.04 436.984 621.336C436.248 620.632 435.272 620.072 434.056 619.656C432.872 619.208 431.56 618.824 430.12 618.504C428.68 618.184 427.224 617.816 425.752 617.4C424.312 616.952 422.984 616.392 421.768 615.72C420.584 615.048 419.624 614.152 418.888 613.032C418.152 611.88 417.784 610.408 417.784 608.616C417.784 606.888 418.232 605.304 419.128 603.864C420.056 602.392 421.464 601.224 423.352 600.36C425.272 599.464 427.704 599.016 430.648 599.016C432.6 599.016 434.536 599.272 436.456 599.784C438.376 600.296 440.04 601.032 441.448 601.992L439.864 605.832C438.424 604.872 436.904 604.184 435.304 603.768C433.704 603.32 432.152 603.096 430.648 603.096C428.76 603.096 427.208 603.336 425.992 603.816C424.776 604.296 423.88 604.936 423.304 605.736C422.76 606.536 422.488 607.432 422.488 608.424C422.488 609.608 422.856 610.552 423.592 611.256C424.36 611.96 425.336 612.52 426.52 612.936C427.736 613.352 429.064 613.736 430.504 614.088C431.944 614.408 433.384 614.776 434.824 615.192C436.296 615.608 437.624 616.152 438.808 616.824C440.024 617.496 441 618.392 441.736 619.512C442.472 620.632 442.84 622.072 442.84 623.832C442.84 625.528 442.376 627.112 441.448 628.584C440.52 630.024 439.08 631.192 437.128 632.088C435.208 632.952 432.776 633.384 429.832 633.384ZM463.773 633.384C459.357 633.384 455.885 632.12 453.357 629.592C450.829 627.064 449.565 623.368 449.565 618.504V599.4H454.365V618.312C454.365 622.056 455.181 624.792 456.812 626.52C458.477 628.248 460.813 629.112 463.821 629.112C466.861 629.112 469.197 628.248 470.829 626.52C472.493 624.792 473.325 622.056 473.325 618.312V599.4H477.981V618.504C477.981 623.368 476.717 627.064 474.189 629.592C471.693 632.12 468.221 633.384 463.773 633.384ZM487.821 633V599.4H500.925C503.869 599.4 506.381 599.864 508.461 600.792C510.541 601.72 512.141 603.064 513.261 604.824C514.381 606.584 514.941 608.68 514.941 611.112C514.941 613.544 514.381 615.64 513.261 617.4C512.141 619.128 510.541 620.472 508.461 621.432C506.381 622.36 503.869 622.824 500.925 622.824H490.461L492.621 620.568V633H487.821ZM492.621 621.048L490.461 618.648H500.781C503.853 618.648 506.173 617.992 507.741 616.68C509.341 615.368 510.141 613.512 510.141 611.112C510.141 608.712 509.341 606.856 507.741 605.544C506.173 604.232 503.853 603.576 500.781 603.576H490.461L492.621 601.176V621.048ZM526.361 613.896H543.641V617.976H526.361V613.896ZM526.793 628.824H546.377V633H521.993V599.4H545.705V603.576H526.793V628.824ZM554.149 633V599.4H567.253C570.197 599.4 572.709 599.864 574.789 600.792C576.869 601.72 578.469 603.064 579.589 604.824C580.709 606.584 581.269 608.68 581.269 611.112C581.269 613.544 580.709 615.64 579.589 617.4C578.469 619.128 576.869 620.456 574.789 621.384C572.709 622.312 570.197 622.776 567.253 622.776H556.789L558.949 620.568V633H554.149ZM576.613 633L568.069 620.808H573.205L581.845 633H576.613ZM558.949 621.048L556.789 618.696H567.109C570.181 618.696 572.501 618.04 574.069 616.728C575.669 615.384 576.469 613.512 576.469 611.112C576.469 608.712 575.669 606.856 574.069 605.544C572.501 604.232 570.181 603.576 567.109 603.576H556.789L558.949 601.176V621.048ZM589.024 633V599.4H592.96L608.032 624.792H605.92L620.8 599.4H624.736L624.784 633H620.176L620.128 606.648H621.232L607.984 628.92H605.776L592.432 606.648H593.632V633H589.024ZM629.78 633L644.996 599.4H649.748L665.012 633H659.972L646.388 602.088H648.308L634.724 633H629.78ZM636.26 624.6L637.556 620.76H656.468L657.86 624.6H636.26ZM670.024 633V599.4H683.128C686.072 599.4 688.584 599.864 690.664 600.792C692.744 601.72 694.344 603.064 695.464 604.824C696.584 606.584 697.144 608.68 697.144 611.112C697.144 613.544 696.584 615.64 695.464 617.4C694.344 619.128 692.744 620.456 690.664 621.384C688.584 622.312 686.072 622.776 683.128 622.776H672.664L674.824 620.568V633H670.024ZM692.488 633L683.944 620.808H689.08L697.72 633H692.488ZM674.824 621.048L672.664 618.696H682.984C686.056 618.696 688.376 618.04 689.944 616.728C691.544 615.384 692.344 613.512 692.344 611.112C692.344 608.712 691.544 606.856 689.944 605.544C688.376 604.232 686.056 603.576 682.984 603.576H672.664L674.824 601.176V621.048ZM709.123 624.888L708.883 619.032L727.939 599.4H733.411L718.675 614.952L715.987 617.928L709.123 624.888ZM704.899 633V599.4H709.699V633H704.899ZM728.707 633L714.931 616.968L718.147 613.416L734.323 633H728.707ZM743.767 613.896H761.047V617.976H743.767V613.896ZM744.199 628.824H763.783V633H739.399V599.4H763.111V603.576H744.199V628.824ZM778.228 633V603.576H766.708V599.4H794.5V603.576H782.98V633H778.228ZM827.642 633.384C825.082 633.384 822.714 632.968 820.538 632.136C818.394 631.272 816.522 630.072 814.922 628.536C813.354 626.968 812.122 625.144 811.226 623.064C810.33 620.984 809.882 618.696 809.882 616.2C809.882 613.704 810.33 611.416 811.226 609.336C812.122 607.256 813.37 605.448 814.97 603.912C816.57 602.344 818.442 601.144 820.586 600.312C822.762 599.448 825.13 599.016 827.69 599.016C830.282 599.016 832.666 599.464 834.842 600.36C837.05 601.224 838.922 602.52 840.458 604.248L837.338 607.272C836.058 605.928 834.618 604.936 833.018 604.296C831.418 603.624 829.706 603.288 827.882 603.288C825.994 603.288 824.234 603.608 822.602 604.248C821.002 604.888 819.61 605.784 818.426 606.936C817.242 608.088 816.314 609.464 815.642 611.064C815.002 612.632 814.682 614.344 814.682 616.2C814.682 618.056 815.002 619.784 815.642 621.384C816.314 622.952 817.242 624.312 818.426 625.464C819.61 626.616 821.002 627.512 822.602 628.152C824.234 628.792 825.994 629.112 827.882 629.112C829.706 629.112 831.418 628.792 833.018 628.152C834.618 627.48 836.058 626.456 837.338 625.08L840.458 628.104C838.922 629.832 837.05 631.144 834.842 632.04C832.666 632.936 830.266 633.384 827.642 633.384ZM871.402 599.4H876.202V633H871.402V599.4ZM852.106 633H847.306V599.4H852.106V633ZM871.834 618.024H851.626V613.848H871.834V618.024ZM881.171 633L896.387 599.4H901.139L916.403 633H911.363L897.779 602.088H899.699L886.115 633H881.171ZM887.651 624.6L888.947 620.76H907.859L909.251 624.6H887.651ZM921.415 633V599.4H926.215V633H921.415ZM936.274 633V599.4H940.21L962.434 627H960.37V599.4H965.17V633H961.234L939.01 605.4H941.074V633H936.274Z" fill="#2A3940"/>
<path d="M398 618H305V614H398V618Z" fill="#2CA669" stroke="#2CA669"/>
<path d="M1103 618H1010V614H1103V618Z" fill="#2CA669" stroke="#2CA669"/>
</g>
</svg>
